<svg xmlns="http://www.w3.org/2000/svg" xmlns:xlink="http://www.w3.org/1999/xlink" width="1080" zoomAndPan="magnify" viewBox="0 0 810 809.999993" height="1080" preserveAspectRatio="xMidYMid meet" version="1.0"><rect x="-81" width="972" fill="#ffffff" y="-80.999999" height="971.999992" fill-opacity="1"/><rect x="-81" width="972" fill="#ffffff" y="-80.999999" height="971.999992" fill-opacity="1"/><path fill="#e7e5e5" d="M 674.132812 465.683594 L 670.894531 462.433594 C 666.898438 458.234375 649.625 452.945312 644.101562 452.453125 C 641.203125 452.199219 636.660156 451.105469 633.664062 451.191406 C 631.425781 451.253906 631.324219 451.28125 628.804688 450.871094 L 609.222656 452.15625 C 607.484375 452.296875 608.191406 452.332031 606.835938 452.570312 C 606.019531 452.710938 605.152344 452.738281 604.351562 452.757812 L 599.867188 453.28125 C 595.277344 453.425781 592.339844 453.101562 590.523438 452.398438 C 590.332031 452.324219 590.15625 452.246094 589.992188 452.164062 C 585.136719 449.769531 590.394531 443.890625 590.898438 436.988281 L 591.492188 429.359375 C 591.335938 420.550781 590.574219 411.871094 589.242188 403.355469 C 583.648438 367.652344 568.027344 334.894531 545.128906 308.367188 L 543.835938 305.230469 C 541.179688 297.335938 539.257812 287.964844 536.222656 279.777344 C 534.3125 274.613281 530.933594 269.085938 529.199219 264.125 C 523.769531 248.636719 529.863281 248.257812 534.308594 244.507812 C 538.039062 241.363281 540.800781 229.109375 541.269531 224.070312 L 541.097656 220.542969 C 540.957031 215.367188 539.9375 216.570312 536.691406 214.222656 C 534.183594 215.871094 531.722656 217.820312 530.167969 220.246094 C 529.597656 221.128906 529.394531 221.234375 528.617188 222.117188 C 526.421875 224.632812 525.039062 229.304688 522.914062 231.101562 C 521.335938 227.722656 519.875 223.488281 519.828125 219.789062 C 519.785156 216.769531 519.722656 217.167969 518.9375 213.792969 C 518.359375 211.292969 518.996094 211.019531 518.949219 208.632812 C 518.910156 206.558594 518.167969 204.753906 518.113281 202.65625 C 517.929688 195.71875 518.234375 188.878906 519.273438 182.121094 L 520.488281 167.199219 C 520.4375 166.191406 520.101562 165.074219 520.058594 163.988281 C 519.90625 160.171875 520.535156 160.90625 519.453125 155.96875 C 518.082031 149.703125 513.257812 145.902344 510.414062 152.671875 L 509.988281 154.195312 C 509.429688 160.015625 512.609375 166.925781 510.542969 172.089844 C 507.820312 178.867188 494.941406 170.703125 491.378906 167.816406 C 490.652344 167.226562 490.476562 166.941406 489.859375 166.460938 L 485.859375 163 C 481.300781 157.851562 476.050781 153.148438 474.816406 145.75 C 471.027344 123.125 453.847656 121.671875 467.515625 151.464844 C 468.152344 152.851562 468.726562 154.640625 469.28125 156.105469 C 469.53125 156.765625 470.03125 158.027344 470.175781 158.667969 L 470.269531 160.429688 C 469.90625 163.980469 465.929688 164.355469 463.28125 163.484375 C 459.359375 162.199219 456.542969 156.832031 453.9375 153.859375 C 452.375 152.074219 451.039062 149.054688 449.902344 146.753906 C 448.328125 143.578125 446.941406 142.226562 445.472656 139.542969 C 443.003906 135.003906 440.644531 128.890625 437.6875 124.691406 C 433.941406 118.914062 429.53125 118.054688 429.382812 125.703125 C 429.316406 128.917969 430.148438 129.167969 430.96875 132.460938 C 433.066406 140.84375 439.019531 150.957031 441.71875 158.003906 C 442.785156 160.800781 443.363281 162.402344 444.632812 164.914062 C 446.28125 168.144531 444.644531 167.605469 442.949219 169.359375 C 438.761719 170.542969 433.589844 168.828125 428.78125 165.972656 C 424.210938 163.25 419.960938 159.488281 417.195312 156.195312 C 411.855469 149.839844 412.671875 159.34375 412.535156 160.519531 C 412.132812 163.851562 413.132812 165.84375 415.546875 168.167969 C 418.238281 170.753906 421.117188 172.210938 424.425781 174.109375 C 443.898438 185.257812 480.996094 183.5625 495.332031 192.894531 C 499.855469 195.835938 502.273438 201.054688 505.121094 205.261719 C 515.222656 220.183594 502.234375 226.730469 501.152344 234.417969 C 500.003906 242.628906 495.585938 240.558594 488.015625 243.410156 C 481.234375 245.964844 475.554688 247.769531 469.878906 250.988281 C 462.386719 255.234375 465.695312 252.238281 458.78125 257.917969 C 457.207031 259.222656 457.046875 258.75 455.632812 260.34375 C 453.191406 263.09375 451.953125 263.59375 449.667969 265.765625 C 447.421875 267.910156 445.960938 268.6875 442.59375 270.25 C 437.730469 272.511719 432.101562 276.289062 426.269531 278.652344 C 414.773438 283.296875 403.574219 283.585938 410.453125 290.535156 L 414.0625 293.914062 C 415.835938 295.578125 419.664062 297.835938 421.097656 300.128906 C 423.566406 304.078125 424.5 308.796875 433.152344 310.371094 L 438.445312 311.023438 C 441.457031 311.042969 448.933594 311.582031 451.285156 311.15625 C 453.234375 310.804688 454.53125 310.339844 456.386719 310.332031 C 461.074219 310.3125 465.820312 309.292969 470.355469 310.179688 C 470.707031 310.246094 471.054688 310.328125 471.398438 310.417969 C 476.339844 311.738281 480.222656 315.527344 482.734375 320.796875 C 485.921875 327.484375 486.90625 336.542969 485.0625 345.953125 C 481.40625 364.636719 466.601562 384.699219 435.71875 390.285156 L 401.089844 393.382812 C 399.691406 393.433594 399.1875 393.621094 397.792969 393.675781 L 379.605469 393.304688 C 376.304688 393.035156 376.5625 393.757812 372.164062 392.976562 L 341.210938 389.046875 C 338.324219 388.5 335.898438 387.5625 333.058594 387.152344 C 329.976562 386.699219 325.535156 386.0625 322.5 386.574219 C 319.394531 387.097656 317.273438 387.097656 314.289062 388.328125 L 313.582031 388.664062 L 313.226562 388.828125 C 308.335938 390.835938 302.925781 392.035156 297.8125 392.671875 C 289.214844 393.738281 285.078125 394.097656 276.417969 389.773438 C 273.445312 388.289062 273.550781 387.210938 271.195312 385.28125 L 267.703125 381.714844 C 264.449219 378.003906 256.457031 367.871094 254.382812 363.742188 C 251.730469 358.445312 255.742188 345.695312 257.753906 340.324219 C 253.582031 339.148438 251.269531 341.726562 248.179688 343.808594 C 247.382812 344.347656 247.027344 344.476562 246.191406 345.09375 C 245.234375 345.792969 244.84375 346.273438 244.023438 346.941406 C 237.148438 352.589844 230.898438 361.597656 232.082031 370.871094 C 232.640625 375.246094 233.253906 379.398438 236.65625 383.378906 C 237.445312 384.308594 239.644531 386.367188 240.585938 387.171875 C 243.867188 389.964844 248.4375 391.050781 252.449219 393.367188 L 263.222656 400.054688 C 265.789062 402.449219 266.515625 403.492188 267.21875 406.824219 C 268.027344 410.664062 265.675781 412.695312 263.480469 415.339844 L 256.515625 425.511719 C 252.597656 433.210938 254.5 438.160156 254.585938 443.457031 C 254.609375 444.96875 254.25 445.085938 254.28125 446.597656 C 254.316406 448.316406 254.621094 447.628906 254.726562 449.398438 C 254.847656 451.351562 254.085938 453.46875 254.066406 455.273438 C 253.945312 466.191406 247.589844 484.171875 240.484375 492.277344 C 238.972656 494.011719 238.179688 495.867188 236.800781 497.402344 C 234.996094 499.421875 235.109375 498.460938 233.085938 501.496094 C 232.226562 502.796875 228.878906 505.832031 225.785156 508.53125 L 220.683594 512.929688 C 219.277344 514.152344 218.027344 514.921875 216.519531 516.039062 L 203.046875 525.113281 C 201.445312 526.0625 200.035156 526.746094 198.644531 527.699219 L 192.085938 531.207031 C 187.355469 533.742188 182.050781 536.140625 177.910156 539.671875 L 172.152344 545.886719 C 170.734375 547.871094 169.84375 547.894531 168.539062 551.15625 C 164.539062 561.140625 162.011719 569.53125 160.003906 578.242188 C 159.039062 582.441406 156.09375 587.519531 154.324219 590.738281 C 152.207031 594.597656 150.347656 598.84375 148.054688 602.457031 C 145.589844 606.351562 139.632812 614.074219 136.160156 616.886719 C 135.324219 617.574219 135.863281 617.132812 134.960938 618.019531 L 134.078125 618.902344 L 131.703125 620.292969 C 131.125 620.652344 131.347656 620.578125 130.734375 621 C 127 623.550781 121.78125 622.578125 118.433594 626.03125 C 113.074219 631.570312 100.984375 655.171875 117.757812 648.175781 C 122.15625 646.339844 125.980469 643.773438 130.273438 641.730469 C 135.363281 639.300781 141.128906 637.445312 145.96875 634.707031 C 146.941406 634.15625 147.382812 633.984375 148.410156 633.472656 L 149.789062 632.742188 L 156.136719 628.765625 C 157.734375 627.46875 159.242188 626.277344 160.296875 624.695312 C 163.125 620.46875 165.671875 617.023438 167.480469 612.164062 C 169.472656 606.8125 182.113281 581.375 184.15625 578.957031 C 185.023438 577.929688 185.179688 577.988281 186.101562 576.628906 C 186.847656 575.53125 187.101562 574.933594 187.820312 573.800781 C 190.113281 570.195312 193.570312 567.320312 196.539062 564.652344 L 220.285156 547.960938 L 220.625 547.777344 C 226.5 544.484375 232.902344 541.941406 239.273438 539.710938 L 242.304688 538.859375 L 247.265625 537.472656 C 248.96875 536.949219 248.011719 537.078125 249.960938 536.789062 L 258.914062 534.78125 C 260.246094 534.605469 260.300781 534.90625 261.839844 534.609375 L 309.863281 522.28125 C 313.417969 520.957031 316.695312 518.621094 319.636719 516.390625 C 320.667969 515.601562 320.652344 515.84375 321.882812 514.71875 L 324.285156 512.453125 C 330.703125 507.417969 335 500.027344 341.871094 495.433594 C 351.527344 488.957031 356.054688 488.945312 366.925781 488.253906 L 408.808594 489.789062 C 413.925781 490.882812 417.421875 490.707031 422.578125 491.777344 C 422.746094 491.8125 422.914062 491.84375 423.082031 491.867188 C 425.242188 492.226562 426.492188 491.851562 428.742188 492.132812 C 431.246094 492.445312 433.71875 493.261719 435.796875 493.492188 C 438.558594 493.804688 439.414062 493.394531 442.515625 494.125 C 447.257812 495.242188 457.332031 496.09375 462.550781 496.679688 L 477.542969 498.386719 C 477.144531 499.078125 476.695312 499.8125 476.121094 500.816406 C 475.113281 502.578125 473.621094 505.5 472.921875 507.007812 C 471.710938 509.625 470.546875 511.785156 469.65625 513.996094 C 467.878906 518.390625 462.609375 528.863281 459.0625 531.296875 C 454.152344 534.664062 448.53125 536.277344 443.121094 538.714844 C 439.351562 540.414062 436.246094 542.277344 435.222656 547.214844 C 434.527344 550.605469 435.917969 556.742188 439.5 558.179688 C 440.941406 558.757812 444.25 558.289062 445.417969 557.941406 L 445.78125 557.8125 L 446.144531 557.664062 L 457.289062 553.859375 L 457.644531 553.695312 L 461.992188 551.9375 C 469.417969 548.554688 476.554688 544.796875 483.371094 540.417969 L 484.734375 539.648438 C 486.957031 538.070312 489.445312 534.234375 490.628906 531.84375 C 493.667969 525.734375 493.433594 522.023438 494.535156 517.300781 C 495.851562 511.652344 497.589844 505.382812 500.722656 500.179688 L 521.011719 500.714844 C 525.90625 500.480469 531.441406 500.867188 536.261719 500.289062 C 537.78125 500.105469 538.039062 500.234375 539.738281 500.390625 L 555.316406 499.738281 C 559.257812 499.269531 563.109375 499.3125 567.105469 498.300781 L 570.976562 497.429688 L 572.945312 496.992188 C 573.980469 496.746094 573.558594 496.9375 574.539062 496.730469 L 581.054688 495.390625 L 587.488281 494.074219 C 588.785156 493.941406 588.980469 494.109375 590.417969 493.902344 C 592.054688 493.667969 591.878906 493.625 593.679688 493.535156 C 596.0625 493.417969 597.425781 492.753906 599.796875 492.824219 C 601.976562 492.890625 603.265625 492.132812 605.445312 492.039062 C 613.375 491.6875 621.175781 488.460938 629 488.007812 C 634.527344 487.691406 629.808594 493.304688 627.40625 499.796875 C 626.207031 503.0625 625.5625 503.796875 624.023438 506.503906 C 623.015625 508.261719 621.519531 511.1875 620.820312 512.691406 C 619.613281 515.3125 618.449219 517.46875 617.558594 519.679688 C 615.78125 524.074219 610.511719 534.546875 606.964844 536.980469 C 602.054688 540.347656 596.433594 541.964844 591.023438 544.402344 C 587.253906 546.097656 584.148438 547.960938 583.125 552.898438 C 582.429688 556.289062 583.820312 562.429688 587.402344 563.867188 C 588.839844 564.441406 592.152344 563.976562 593.316406 563.628906 L 593.683594 563.496094 L 594.046875 563.347656 L 605.191406 559.546875 L 605.546875 559.378906 L 609.894531 557.621094 C 617.316406 554.242188 624.453125 550.480469 631.273438 546.101562 L 632.632812 545.332031 C 634.859375 543.753906 637.34375 539.917969 638.53125 537.527344 C 641.570312 531.421875 641.332031 527.707031 642.4375 522.988281 C 644.507812 514.125 647.5625 503.699219 655.496094 498.347656 L 670.003906 488.722656 C 678.050781 483.019531 680.734375 473.382812 674.132812 465.683594 " fill-opacity="1" fill-rule="evenodd"/><path fill="#e7e5e5" d="M 433.355469 501.871094 C 430.9375 501.566406 429.671875 502.027344 427.191406 501.511719 C 422.035156 500.441406 418.542969 500.625 413.417969 499.519531 L 371.539062 497.996094 C 360.667969 498.679688 356.140625 498.695312 346.480469 505.167969 C 339.617188 509.769531 335.316406 517.15625 328.898438 522.195312 L 326.496094 524.457031 C 325.269531 525.578125 325.285156 525.335938 324.25 526.125 C 321.3125 528.359375 318.035156 530.699219 314.480469 532.015625 L 276.898438 541.664062 L 276.554688 542.039062 C 275.136719 544.019531 274.242188 544.050781 272.9375 547.304688 C 268.941406 557.296875 266.410156 565.6875 264.40625 574.394531 C 263.4375 578.589844 260.496094 583.671875 258.726562 586.890625 C 256.605469 590.746094 254.746094 594.996094 252.457031 598.605469 C 249.988281 602.503906 244.035156 610.226562 240.5625 613.042969 C 239.726562 613.726562 240.261719 613.28125 239.363281 614.175781 L 238.476562 615.058594 L 236.101562 616.441406 C 235.527344 616.808594 235.753906 616.734375 235.136719 617.148438 C 231.402344 619.707031 226.183594 618.730469 222.835938 622.1875 C 217.476562 627.726562 205.382812 651.320312 222.15625 644.328125 C 226.558594 642.496094 230.382812 639.925781 234.675781 637.878906 C 239.765625 635.453125 245.53125 633.59375 250.371094 630.859375 C 251.34375 630.3125 251.789062 630.140625 252.808594 629.628906 L 254.191406 628.890625 L 260.539062 624.921875 C 262.140625 623.625 263.640625 622.425781 264.699219 620.847656 C 267.527344 616.625 270.074219 613.175781 271.882812 608.316406 C 273.871094 602.964844 286.519531 577.53125 288.558594 575.113281 C 289.425781 574.082031 289.582031 574.144531 290.503906 572.785156 C 291.25 571.683594 291.503906 571.089844 292.226562 569.957031 C 294.511719 566.347656 297.972656 563.476562 300.941406 560.804688 L 324.683594 544.117188 L 325.023438 543.933594 C 330.902344 540.636719 337.300781 538.09375 343.671875 535.863281 L 346.707031 535.015625 L 351.664062 533.621094 C 353.367188 533.101562 352.414062 533.226562 354.363281 532.945312 L 363.3125 530.9375 C 364.648438 530.761719 364.703125 531.058594 366.242188 530.765625 L 414.265625 518.429688 C 417.820312 517.113281 421.097656 514.777344 424.035156 512.539062 C 425.070312 511.757812 425.054688 511.996094 426.285156 510.871094 L 428.6875 508.609375 C 431.105469 506.714844 433.21875 504.480469 435.289062 502.191406 L 433.355469 501.871094 " fill-opacity="1" fill-rule="evenodd"/></svg>